# xmcd CD database file
#
# Track frame offsets:
#	150
#	46188
#	71403
#	92088
#	108645
#	139706
#	166208
#	181705
#	213324
#	235322
#	255825
#
# Disc length: 3574 seconds
#
# Revision: 0
# Processed by: cddbd v1.5.2PL0 Copyright (c) Steve Scherf et al.
# Submitted via: CDex 1.60beta1-cs1
#
DISCID=8a0df40b
DTITLE=Tino Tracanna - La Forma Delle Cose
DYEAR=2002
DGENRE=Jazz
TTITLE0=Burro Cacao
TTITLE1=Casta Rumba
TTITLE2=Stompin' In Matera
TTITLE3=Incantamento
TTITLE4=Schegge #1
TTITLE5=Eterninna
TTITLE6=L'Indice Di Alfredo
TTITLE7=Emma's First Dance
TTITLE8=Ti Devo Vedere
TTITLE9=Schegge #9
TTITLE10=L'Indice Di Alfredo (Alt)
EXTD=YEAR: 2002
EXTT0=
EXTT1=
EXTT2=
EXTT3=
EXTT4=
EXTT5=
EXTT6=
EXTT7=
EXTT8=
EXTT9=
EXTT10=
PLAYORDER=
